<?xml version="1.0" standalone="no"?>

<svg version="1.0" xmlns="http://www.w3.org/2000/svg" width="501.000000pt" height="500.000000pt" viewBox="0 0 501.000000 500.000000" preserveAspectRatio="xMidYMid meet">

<g transform="translate(0.000000,500.000000) scale(0.100000,-0.100000)" fill="#2563EB" stroke="none">
<path d="M371 4984 c-120 -32 -239 -124 -304 -234 -61 -105 -57 34 -55 -2271&#xA;l3 -2104 21 -57 c52 -136 166 -246 304 -294 53 -18 119 -19 2165 -19 2067 0&#xA;2111 0 2170 20 169 55 296 205 326 385 5 32 9 920 9 2095 0 2226 2 2116 -57&#xA;2233 -36 71 -115 154 -186 196 -119 70 30 66 -2269 65 -1777 0 -2081 -2 -2127&#xA;-15z m3222 -1244 c79 -24 171 -84 215 -140 18 -22 48 -71 65 -108 30 -63 32&#xA;-73 32 -182 0 -108 -2 -119 -31 -180 -46 -95 -1174 -1704 -1237 -1764 -230&#xA;-218 -612 -128 -728 172 -33 85 -33 224 0 311 31 80 1175 1721 1249 1791 116&#xA;108 283 147 435 100z m-1893 -739 c124 -47 225 -147 270 -268 26 -70 36 -198&#xA;21 -278 -35 -190 -184 -335 -377 -367 -190 -32 -391 78 -477 259 -28 61 -32&#xA;79 -35 179 -6 174 33 280 139 379 98 90 201 128 330 120 42 -2 100 -13 129&#xA;-24z"></path>
</g>
</svg>